<svg width="572" height="243" viewBox="0 0 572 243" fill="none" xmlns="http://www.w3.org/2000/svg">
<rect x="0.5" y="0.5" width="571" height="242" fill="#FAFAFA"/>
<rect x="0.5" y="0.5" width="571" height="242" stroke="#E4E4E7"/>
<rect width="80" height="80" transform="matrix(0.866025 0.5 -0.866025 0.5 275.283 51)" fill="white" stroke="#E4E4E7"/>
<rect width="80" height="40" transform="matrix(0.866025 0.5 0 1 206 91)" fill="#ECECEC" stroke="#E4E4E7"/>
<rect width="80" height="40" transform="matrix(0.866025 -0.5 0 1 275.283 131)" fill="#F4F4F5" stroke="#E4E4E7"/>
<rect width="42.2559" height="21.1279" transform="matrix(0.866025 -0.5 0 1 282.459 136.391)" fill="white" stroke="#E4E4E7"/>
<ellipse cx="2.66656" cy="2.66667" rx="2.66656" ry="2.66667" transform="matrix(0.866013 -0.500021 0 1 287.154 142.666)" fill="#DBDBDB"/>
<path d="M287.155 145.333C287.155 146.015 287.38 146.567 287.831 146.828L286.676 146.161C286.225 145.901 286 145.348 286 144.666L287.155 145.333Z" fill="#A1A1A1"/>
<path d="M287.155 145.333C287.155 143.86 288.189 142.069 289.464 141.333L288.309 140.666C287.034 141.402 286 143.193 286 144.666L287.155 145.333Z" fill="#F2F2F2"/>
<path d="M291.096 141.172C290.645 140.912 290.054 140.993 289.463 141.334L288.309 140.667C288.9 140.326 289.491 140.245 289.941 140.505L291.096 141.172Z" fill="#F2F2F2"/>
<ellipse cx="2.66656" cy="2.66667" rx="2.66656" ry="2.66667" transform="matrix(0.866013 -0.500021 0 1 312.154 128.668)" fill="#DBDBDB"/>
<path d="M312.155 131.335C312.155 132.017 312.38 132.569 312.831 132.83L311.676 132.163C311.225 131.903 311 131.35 311 130.668L312.155 131.335Z" fill="#A1A1A1"/>
<path d="M312.155 131.335C312.155 129.862 313.189 128.071 314.464 127.335L313.309 126.668C312.034 127.404 311 129.195 311 130.668L312.155 131.335Z" fill="#F2F2F2"/>
<path d="M316.096 127.172C315.645 126.912 315.054 126.993 314.463 127.334L313.309 126.667C313.9 126.326 314.491 126.245 314.941 126.505L316.096 127.172Z" fill="#F2F2F2"/>
<rect width="80" height="40" transform="matrix(0.866025 -0.5 0 1 275 131)" fill="#20719A" fill-opacity="0.4" style="mix-blend-mode:multiply"/>
<circle cx="8" cy="8" r="8" transform="matrix(0.866025 0.5 -0.866025 0.5 253.857 79)" fill="white" stroke="#E4E4E7"/>
<path d="M244.059 87C244.059 88.5621 245.155 89.9763 246.928 91V95C245.155 93.9763 244.059 92.5621 244.059 91V87Z" fill="#D9D9D9" stroke="#E4E4E7"/>
<path d="M246.928 91C250.754 93.2091 256.958 93.2091 260.784 91V95C256.958 97.2091 250.754 97.2091 246.928 95V91Z" fill="#CBCBCB" stroke="#E4E4E7"/>
<path d="M263.655 87C263.655 88.5621 262.558 89.9763 260.785 91V95C262.558 93.9763 263.655 92.5621 263.655 91V87Z" fill="#CBCBCB" stroke="#E4E4E7"/>
<circle cx="8" cy="8" r="8" transform="matrix(0.866025 0.5 -0.866025 0.5 275.857 91.6562)" fill="white" stroke="#E4E4E7"/>
<path d="M266.061 99.6562C266.061 101.218 267.157 102.633 268.93 103.656V107.656C267.157 106.633 266.061 105.218 266.061 103.656V99.6562Z" fill="#D9D9D9" stroke="#E4E4E7"/>
<path d="M268.93 103.656C272.756 105.865 278.96 105.865 282.786 103.656V107.656C278.96 109.865 272.756 109.865 268.93 107.656V103.656Z" fill="#CBCBCB" stroke="#E4E4E7"/>
<path d="M285.657 99.6562C285.657 101.218 284.56 102.633 282.787 103.656V107.656C284.56 106.633 285.657 105.218 285.657 103.656V99.6562Z" fill="#CBCBCB" stroke="#E4E4E7"/>
<circle cx="8" cy="8" r="8" transform="matrix(0.866025 0.5 -0.866025 0.5 275.857 66)" fill="white" stroke="#E4E4E7"/>
<path d="M266.059 74C266.059 75.5621 267.155 76.9763 268.928 78V82C267.155 80.9763 266.059 79.5621 266.059 78V74Z" fill="#D9D9D9" stroke="#E4E4E7"/>
<path d="M268.93 78C272.756 80.2091 278.96 80.2091 282.786 78V82C278.96 84.2091 272.756 84.2091 268.93 82V78Z" fill="#CBCBCB" stroke="#E4E4E7"/>
<path d="M285.655 74C285.655 75.5621 284.558 76.9763 282.785 78V82C284.558 80.9763 285.655 79.5621 285.655 78V74Z" fill="#CBCBCB" stroke="#E4E4E7"/>
<circle cx="8" cy="8" r="8" transform="matrix(0.866025 0.5 -0.866025 0.5 297.572 79)" fill="white" stroke="#E4E4E7"/>
<path d="M287.773 87C287.773 88.5621 288.87 89.9763 290.643 91V95C288.87 93.9763 287.773 92.5621 287.773 91V87Z" fill="#D9D9D9" stroke="#E4E4E7"/>
<path d="M290.645 91C294.471 93.2091 300.675 93.2091 304.501 91V95C300.675 97.2091 294.471 97.2091 290.645 95V91Z" fill="#CBCBCB" stroke="#E4E4E7"/>
<path d="M307.372 87C307.372 88.5621 306.275 89.9763 304.502 91V95C306.275 93.9763 307.372 92.5621 307.372 91V87Z" fill="#CBCBCB" stroke="#E4E4E7"/>
</svg>
